<?xml version="1.0" encoding="UTF-8"?>
<svg xmlns="http://www.w3.org/2000/svg" xmlns:xlink="http://www.w3.org/1999/xlink" width="196px" height="196px" viewBox="0 0 196 196" version="1.1">
<g id="surface1">
<path style=" stroke:none;fill-rule:evenodd;fill:rgb(0%,67.058824%,33.333333%);fill-opacity:1;" d="M 116.726562 35.058594 C 114.332031 37.449219 114.332031 41.300781 114.332031 49 C 114.332031 56.699219 114.332031 60.550781 116.726562 62.941406 C 119.117188 65.332031 122.96875 65.332031 130.667969 65.332031 L 147 65.332031 C 154.699219 65.332031 158.550781 65.332031 160.941406 62.941406 C 163.332031 60.550781 163.332031 56.699219 163.332031 49 C 163.332031 41.300781 163.332031 37.449219 160.941406 35.058594 C 158.550781 32.667969 154.699219 32.667969 147 32.667969 L 130.667969 32.667969 C 122.96875 32.667969 119.117188 32.667969 116.726562 35.058594 Z M 35.058594 133.058594 C 32.667969 135.449219 32.667969 139.300781 32.667969 147 C 32.667969 154.699219 32.667969 158.550781 35.058594 160.941406 C 37.449219 163.332031 41.300781 163.332031 49 163.332031 L 65.332031 163.332031 C 73.03125 163.332031 76.882812 163.332031 79.273438 160.941406 C 81.667969 158.550781 81.667969 154.699219 81.667969 147 C 81.667969 139.300781 81.667969 135.449219 79.273438 133.058594 C 76.882812 130.667969 73.03125 130.667969 65.332031 130.667969 L 49 130.667969 C 41.300781 130.667969 37.449219 130.667969 35.058594 133.058594 Z M 114.332031 114.332031 C 114.332031 106.632812 114.332031 102.785156 116.726562 100.390625 C 119.117188 98 122.96875 98 130.667969 98 L 147 98 C 154.699219 98 158.550781 98 160.941406 100.390625 C 163.332031 102.785156 163.332031 106.632812 163.332031 114.332031 L 163.332031 147 C 163.332031 154.699219 163.332031 158.550781 160.941406 160.941406 C 158.550781 163.332031 154.699219 163.332031 147 163.332031 L 130.667969 163.332031 C 122.96875 163.332031 119.117188 163.332031 116.726562 160.941406 C 114.332031 158.550781 114.332031 154.699219 114.332031 147 Z M 35.058594 35.058594 C 32.667969 37.449219 32.667969 41.300781 32.667969 49 L 32.667969 81.667969 C 32.667969 89.367188 32.667969 93.214844 35.058594 95.609375 C 37.449219 98 41.300781 98 49 98 L 65.332031 98 C 73.03125 98 76.882812 98 79.273438 95.609375 C 81.667969 93.214844 81.667969 89.367188 81.667969 81.667969 L 81.667969 49 C 81.667969 41.300781 81.667969 37.449219 79.273438 35.058594 C 76.882812 32.667969 73.03125 32.667969 65.332031 32.667969 L 49 32.667969 C 41.300781 32.667969 37.449219 32.667969 35.058594 35.058594 Z M 35.058594 35.058594 "/>
<path style=" stroke:none;fill-rule:evenodd;fill:rgb(0%,67.058824%,33.333333%);fill-opacity:1;" d="M 39.390625 39.390625 L 39.410156 39.378906 C 39.425781 39.371094 39.453125 39.355469 39.492188 39.339844 C 39.671875 39.265625 40.066406 39.140625 40.855469 39.035156 C 42.574219 38.804688 44.976562 38.792969 49 38.792969 L 65.332031 38.792969 C 69.355469 38.792969 71.757812 38.804688 73.476562 39.035156 C 74.265625 39.140625 74.660156 39.265625 74.839844 39.339844 C 74.878906 39.355469 74.90625 39.371094 74.921875 39.378906 L 74.945312 39.390625 L 74.953125 39.410156 C 74.964844 39.425781 74.976562 39.453125 74.992188 39.492188 C 75.066406 39.671875 75.191406 40.066406 75.296875 40.855469 C 75.527344 42.574219 75.542969 44.976562 75.542969 49 L 75.542969 81.667969 C 75.542969 85.691406 75.527344 88.089844 75.296875 89.8125 C 75.191406 90.601562 75.066406 90.996094 74.992188 91.171875 C 74.976562 91.214844 74.964844 91.242188 74.953125 91.257812 L 74.945312 91.277344 L 74.921875 91.289062 C 74.90625 91.296875 74.878906 91.308594 74.839844 91.328125 C 74.660156 91.398438 74.265625 91.523438 73.476562 91.628906 C 71.757812 91.863281 69.355469 91.875 65.332031 91.875 L 49 91.875 C 44.976562 91.875 42.574219 91.863281 40.855469 91.628906 C 40.066406 91.523438 39.671875 91.398438 39.492188 91.328125 C 39.453125 91.308594 39.425781 91.296875 39.410156 91.289062 L 39.390625 91.277344 L 39.378906 91.257812 C 39.371094 91.242188 39.355469 91.214844 39.339844 91.171875 C 39.265625 90.996094 39.140625 90.601562 39.035156 89.8125 C 38.804688 88.089844 38.792969 85.691406 38.792969 81.667969 L 38.792969 49 C 38.792969 44.976562 38.804688 42.574219 39.035156 40.855469 C 39.140625 40.066406 39.265625 39.671875 39.339844 39.492188 C 39.355469 39.453125 39.371094 39.425781 39.378906 39.410156 Z M 48.632812 26.542969 C 48.757812 26.542969 48.878906 26.542969 49 26.542969 L 65.332031 26.542969 C 65.457031 26.542969 65.578125 26.542969 65.699219 26.542969 C 69.234375 26.542969 72.472656 26.539062 75.109375 26.894531 C 78.011719 27.285156 81.082031 28.203125 83.605469 30.726562 C 86.128906 33.25 87.046875 36.320312 87.4375 39.222656 C 87.792969 41.859375 87.792969 45.101562 87.792969 48.632812 C 87.792969 48.757812 87.792969 48.878906 87.792969 49 L 87.792969 81.667969 C 87.792969 81.789062 87.792969 81.910156 87.792969 82.03125 C 87.792969 85.566406 87.792969 88.808594 87.4375 91.445312 C 87.046875 94.347656 86.128906 97.414062 83.605469 99.9375 C 81.082031 102.464844 78.011719 103.382812 75.109375 103.769531 C 72.472656 104.125 69.234375 104.125 65.699219 104.125 C 65.578125 104.125 65.457031 104.125 65.332031 104.125 L 49 104.125 C 48.878906 104.125 48.757812 104.125 48.632812 104.125 C 45.101562 104.125 41.859375 104.125 39.222656 103.769531 C 36.320312 103.382812 33.25 102.464844 30.726562 99.9375 C 28.203125 97.414062 27.285156 94.347656 26.894531 91.445312 C 26.539062 88.808594 26.542969 85.566406 26.542969 82.03125 C 26.542969 81.910156 26.542969 81.789062 26.542969 81.667969 L 26.542969 49 C 26.542969 48.878906 26.542969 48.757812 26.542969 48.632812 C 26.542969 45.101562 26.539062 41.859375 26.894531 39.222656 C 27.285156 36.320312 28.203125 33.25 30.726562 30.726562 C 33.25 28.203125 36.320312 27.285156 39.222656 26.894531 C 41.859375 26.539062 45.101562 26.542969 48.632812 26.542969 Z M 121.078125 39.378906 L 121.054688 39.390625 L 121.046875 39.410156 C 121.039062 39.425781 121.023438 39.453125 121.007812 39.492188 C 120.933594 39.671875 120.808594 40.066406 120.703125 40.855469 C 120.472656 42.574219 120.457031 44.976562 120.457031 49 C 120.457031 53.023438 120.472656 55.425781 120.703125 57.144531 C 120.808594 57.933594 120.933594 58.328125 121.007812 58.507812 C 121.011719 58.523438 121.023438 58.550781 121.023438 58.550781 C 121.035156 58.566406 121.046875 58.589844 121.046875 58.589844 L 121.054688 58.609375 L 121.078125 58.621094 C 121.09375 58.628906 121.117188 58.644531 121.160156 58.660156 C 121.335938 58.734375 121.734375 58.859375 122.523438 58.964844 C 124.242188 59.195312 126.644531 59.207031 130.667969 59.207031 L 147 59.207031 C 151.023438 59.207031 153.425781 59.195312 155.144531 58.964844 C 155.933594 58.859375 156.328125 58.734375 156.507812 58.660156 C 156.546875 58.644531 156.574219 58.628906 156.589844 58.621094 L 156.609375 58.609375 L 156.621094 58.589844 C 156.628906 58.574219 156.644531 58.546875 156.660156 58.507812 C 156.734375 58.328125 156.859375 57.933594 156.964844 57.144531 C 157.195312 55.425781 157.207031 53.023438 157.207031 49 C 157.207031 44.976562 157.195312 42.574219 156.964844 40.855469 C 156.859375 40.066406 156.734375 39.671875 156.660156 39.492188 C 156.644531 39.453125 156.628906 39.425781 156.621094 39.410156 L 156.609375 39.390625 L 156.589844 39.378906 C 156.574219 39.371094 156.546875 39.355469 156.507812 39.339844 C 156.328125 39.265625 155.933594 39.140625 155.144531 39.035156 C 153.425781 38.804688 151.023438 38.792969 147 38.792969 L 130.667969 38.792969 C 126.644531 38.792969 124.242188 38.804688 122.523438 39.035156 C 121.734375 39.140625 121.335938 39.265625 121.160156 39.339844 C 121.117188 39.355469 121.09375 39.371094 121.078125 39.378906 Z M 130.300781 26.542969 L 147.363281 26.542969 C 150.902344 26.542969 154.140625 26.539062 156.777344 26.894531 C 159.679688 27.285156 162.75 28.203125 165.273438 30.726562 C 167.796875 33.25 168.714844 36.320312 169.105469 39.222656 C 169.460938 41.859375 169.460938 45.101562 169.457031 48.632812 L 169.457031 49.367188 C 169.460938 52.898438 169.460938 56.140625 169.105469 58.777344 C 168.714844 61.679688 167.796875 64.75 165.273438 67.273438 C 162.75 69.796875 159.679688 70.714844 156.777344 71.105469 C 154.140625 71.460938 150.902344 71.457031 147.363281 71.457031 L 130.300781 71.457031 C 126.765625 71.457031 123.527344 71.460938 120.890625 71.105469 C 117.984375 70.714844 114.917969 69.796875 112.394531 67.273438 C 109.871094 64.75 108.953125 61.679688 108.5625 58.777344 C 108.207031 56.140625 108.207031 52.898438 108.207031 49.367188 C 108.207031 49.242188 108.207031 49.121094 108.207031 49 C 108.207031 48.878906 108.207031 48.757812 108.207031 48.632812 C 108.207031 45.101562 108.207031 41.859375 108.5625 39.222656 C 108.953125 36.320312 109.871094 33.25 112.394531 30.726562 C 114.917969 28.203125 117.984375 27.285156 120.890625 26.894531 C 123.527344 26.539062 126.765625 26.542969 130.300781 26.542969 Z M 130.300781 91.875 L 147.363281 91.875 C 150.902344 91.875 154.140625 91.875 156.777344 92.230469 C 159.679688 92.617188 162.75 93.535156 165.273438 96.0625 C 167.796875 98.585938 168.714844 101.652344 169.105469 104.554688 C 169.460938 107.191406 169.460938 110.433594 169.457031 113.96875 L 169.457031 147.367188 C 169.460938 150.902344 169.460938 154.140625 169.105469 156.777344 C 168.714844 159.679688 167.796875 162.75 165.273438 165.273438 C 162.75 167.796875 159.679688 168.714844 156.777344 169.105469 C 154.140625 169.460938 150.902344 169.460938 147.363281 169.457031 L 130.300781 169.457031 C 126.765625 169.460938 123.527344 169.460938 120.890625 169.105469 C 117.984375 168.714844 114.917969 167.796875 112.394531 165.273438 C 109.871094 162.75 108.953125 159.679688 108.5625 156.777344 C 108.207031 154.140625 108.207031 150.902344 108.207031 147.367188 L 108.207031 114.332031 C 108.207031 114.210938 108.207031 114.089844 108.207031 113.96875 C 108.207031 110.433594 108.207031 107.191406 108.5625 104.554688 C 108.953125 101.652344 109.871094 98.585938 112.394531 96.0625 C 114.917969 93.535156 117.984375 92.617188 120.890625 92.230469 C 123.527344 91.875 126.765625 91.875 130.300781 91.875 Z M 121.078125 104.710938 L 121.054688 104.722656 L 121.046875 104.742188 C 121.039062 104.757812 121.023438 104.785156 121.007812 104.828125 C 120.933594 105.003906 120.808594 105.398438 120.703125 106.1875 C 120.472656 107.910156 120.457031 110.308594 120.457031 114.332031 L 120.457031 147 C 120.457031 151.023438 120.472656 153.425781 120.703125 155.144531 C 120.808594 155.933594 120.933594 156.328125 121.007812 156.507812 C 121.023438 156.546875 121.039062 156.574219 121.046875 156.589844 L 121.054688 156.609375 L 121.078125 156.621094 C 121.09375 156.628906 121.117188 156.644531 121.160156 156.660156 C 121.335938 156.734375 121.734375 156.859375 122.523438 156.964844 C 124.242188 157.195312 126.644531 157.207031 130.667969 157.207031 L 147 157.207031 C 151.023438 157.207031 153.425781 157.195312 155.144531 156.964844 C 155.933594 156.859375 156.328125 156.734375 156.507812 156.660156 C 156.546875 156.644531 156.574219 156.628906 156.589844 156.621094 L 156.609375 156.609375 L 156.621094 156.589844 C 156.628906 156.574219 156.644531 156.546875 156.660156 156.507812 C 156.734375 156.328125 156.859375 155.933594 156.964844 155.144531 C 157.195312 153.425781 157.207031 151.023438 157.207031 147 L 157.207031 114.332031 C 157.207031 110.308594 157.195312 107.910156 156.964844 106.1875 C 156.859375 105.398438 156.734375 105.003906 156.660156 104.828125 C 156.648438 104.804688 156.640625 104.785156 156.632812 104.769531 L 156.621094 104.742188 L 156.609375 104.722656 L 156.589844 104.710938 C 156.574219 104.703125 156.546875 104.691406 156.507812 104.671875 C 156.328125 104.601562 155.933594 104.476562 155.144531 104.371094 C 153.425781 104.136719 151.023438 104.125 147 104.125 L 130.667969 104.125 C 126.644531 104.125 124.242188 104.136719 122.523438 104.371094 C 121.734375 104.476562 121.335938 104.601562 121.160156 104.671875 C 121.117188 104.691406 121.09375 104.703125 121.078125 104.710938 Z M 39.410156 137.378906 L 39.390625 137.390625 L 39.378906 137.410156 C 39.371094 137.425781 39.355469 137.453125 39.339844 137.492188 C 39.265625 137.671875 39.140625 138.066406 39.035156 138.855469 C 38.804688 140.574219 38.792969 142.976562 38.792969 147 C 38.792969 151.023438 38.804688 153.425781 39.035156 155.144531 C 39.140625 155.933594 39.265625 156.328125 39.339844 156.507812 C 39.355469 156.546875 39.371094 156.574219 39.378906 156.589844 L 39.390625 156.609375 L 39.410156 156.621094 C 39.425781 156.628906 39.453125 156.644531 39.492188 156.660156 C 39.671875 156.734375 40.066406 156.859375 40.855469 156.964844 C 42.574219 157.195312 44.976562 157.207031 49 157.207031 L 65.332031 157.207031 C 69.355469 157.207031 71.757812 157.195312 73.476562 156.964844 C 74.265625 156.859375 74.660156 156.734375 74.839844 156.660156 C 74.859375 156.652344 74.890625 156.636719 74.890625 156.636719 L 74.945312 156.609375 L 74.953125 156.589844 L 74.964844 156.566406 C 74.972656 156.550781 74.984375 156.53125 74.992188 156.507812 C 75.066406 156.328125 75.191406 155.933594 75.296875 155.144531 C 75.527344 153.425781 75.542969 151.023438 75.542969 147 C 75.542969 142.976562 75.527344 140.574219 75.296875 138.855469 C 75.191406 138.066406 75.066406 137.671875 74.992188 137.492188 C 74.976562 137.453125 74.964844 137.425781 74.953125 137.410156 L 74.945312 137.390625 L 74.921875 137.378906 C 74.90625 137.371094 74.878906 137.355469 74.839844 137.339844 C 74.660156 137.265625 74.265625 137.140625 73.476562 137.035156 C 71.757812 136.804688 69.355469 136.792969 65.332031 136.792969 L 49 136.792969 C 44.976562 136.792969 42.574219 136.804688 40.855469 137.035156 C 40.066406 137.140625 39.671875 137.265625 39.492188 137.339844 C 39.453125 137.355469 39.425781 137.371094 39.410156 137.378906 Z M 48.632812 124.542969 L 65.699219 124.542969 C 69.234375 124.542969 72.472656 124.539062 75.109375 124.894531 C 78.011719 125.285156 81.082031 126.203125 83.605469 128.726562 C 86.128906 131.25 87.046875 134.320312 87.4375 137.222656 C 87.792969 139.859375 87.792969 143.097656 87.792969 146.636719 L 87.792969 147.367188 C 87.792969 150.902344 87.792969 154.140625 87.4375 156.777344 C 87.046875 159.679688 86.128906 162.75 83.605469 165.273438 C 81.082031 167.796875 78.011719 168.714844 75.109375 169.105469 C 72.472656 169.460938 69.234375 169.460938 65.699219 169.457031 L 48.632812 169.457031 C 45.101562 169.460938 41.859375 169.460938 39.222656 169.105469 C 36.320312 168.714844 33.25 167.796875 30.726562 165.273438 C 28.203125 162.75 27.285156 159.679688 26.894531 156.777344 C 26.539062 154.140625 26.542969 150.902344 26.542969 147.367188 L 26.542969 146.636719 C 26.542969 143.097656 26.539062 139.859375 26.894531 137.222656 C 27.285156 134.320312 28.203125 131.25 30.726562 128.726562 C 33.25 126.203125 36.320312 125.285156 39.222656 124.894531 C 41.859375 124.539062 45.101562 124.542969 48.632812 124.542969 Z M 48.632812 124.542969 "/>
</g>
</svg>
