<!DOCTYPE svg PUBLIC "-//W3C//DTD SVG 1.1//EN" "http://www.w3.org/Graphics/SVG/1.1/DTD/svg11.dtd">
<!-- Uploaded to: SVG Repo, www.svgrepo.com, Transformed by: SVG Repo Mixer Tools -->
<svg width="64px" height="64px" viewBox="0 0 24 24" fill="none" xmlns="http://www.w3.org/2000/svg">
<g id="SVGRepo_bgCarrier" stroke-width="0"/>
<g id="SVGRepo_tracerCarrier" stroke-linecap="round" stroke-linejoin="round"/>
<g id="SVGRepo_iconCarrier">
<path fill-rule="evenodd" clip-rule="evenodd" d="M15 10.5A3.502 3.502 0 0 0 18.355 8H21a1 1 0 1 0 0-2h-2.645a3.502 3.502 0 0 0-6.71 0H3a1 1 0 0 0 0 2h8.645A3.502 3.502 0 0 0 15 10.5zM3 16a1 1 0 1 0 0 2h2.145a3.502 3.502 0 0 0 6.71 0H21a1 1 0 1 0 0-2h-9.145a3.502 3.502 0 0 0-6.71 0H3z" fill="#ffffff"/>
</g>
</svg>