<!DOCTYPE svg PUBLIC "-//W3C//DTD SVG 1.1//EN" "http://www.w3.org/Graphics/SVG/1.1/DTD/svg11.dtd">
<!-- Uploaded to: SVG Repo, www.svgrepo.com, Transformed by: SVG Repo Mixer Tools -->
<svg fill="#ffffff" version="1.1" id="Layer_1" xmlns="http://www.w3.org/2000/svg" xmlns:xlink="http://www.w3.org/1999/xlink" width="64px" height="64px" viewBox="0 0 72 72" enable-background="new 0 0 72 72" xml:space="preserve">
<g id="SVGRepo_bgCarrier" stroke-width="0"/>
<g id="SVGRepo_tracerCarrier" stroke-linecap="round" stroke-linejoin="round"/>
<g id="SVGRepo_iconCarrier"> <g> <path d="M67.625,56.738C67.592,56.688,67.66,56.787,67.625,56.738L47.823,28.167V5.42c0-1.105-0.539-1.92-1.643-1.92H27.179 c-1.104,0-1.356,0.816-1.356,1.92v22.097L4.904,56.764c-0.035,0.049-0.217,0.277-0.248,0.33c-1.688,2.926-2.078,5.621-0.785,7.86 c1.306,2.261,3.915,3.546,7.347,3.546h49.451c3.429,0,6.118-1.287,7.424-3.551C69.389,62.704,69.313,59.666,67.625,56.738z M29.137,29.302c0.237-0.338,0.687-0.74,0.687-1.152V7.5h14v21.301c0,0.412-0.194,0.824,0.044,1.161l9.19,13.262 c-3.056,1.232-6.822,2.05-14.531-2.557c-5.585-3.337-12.499-2.048-17.199-0.449L29.137,29.302z M64.55,62.949 c-0.554,0.96-1.969,1.551-3.88,1.551H11.219c-1.915,0-3.33-0.589-3.883-1.547c-0.532-0.922-0.324-2.391,0.571-3.975l11.287-15.777 c3.942-1.702,12.219-4.454,18.308-0.816c4.852,2.898,8.367,3.814,11.116,3.814c2.291,0,4.05-0.637,5.607-1.291l9.755,14.076 C64.877,60.568,65.085,62.023,64.55,62.949z"/> <path d="M22.026,50.969c-3.017,0-5.471,2.453-5.471,5.471c0,3.017,2.454,5.471,5.471,5.471c3.016,0,5.471-2.454,5.471-5.471 C27.497,53.422,25.043,50.969,22.026,50.969z M22.026,59.911c-1.914,0-3.471-1.558-3.471-3.472s1.557-3.471,3.471-3.471 s3.471,1.557,3.471,3.471S23.94,59.911,22.026,59.911z"/> <path d="M50.775,52.469c-2.603,0-4.721,2.117-4.721,4.721c0,2.603,2.118,4.721,4.721,4.721c2.604,0,4.722-2.118,4.722-4.721 C55.497,54.586,53.379,52.469,50.775,52.469z M50.775,59.911c-1.5,0-2.721-1.222-2.721-2.722s1.221-2.721,2.721-2.721 s2.722,1.221,2.722,2.721S52.275,59.911,50.775,59.911z"/> <path d="M35.077,45.469c-2.217,0-4.021,1.803-4.021,4.021c0,2.217,1.803,4.021,4.021,4.021c2.217,0,4.021-1.805,4.021-4.021 S37.294,45.469,35.077,45.469z M35.077,51.512c-1.114,0-2.021-0.908-2.021-2.021c0-1.114,0.907-2.021,2.021-2.021 c1.114,0,2.021,0.906,2.021,2.021S36.191,51.512,35.077,51.512z"/> <path d="M40.824,22.42c0.553,0,1-0.447,1-1v-11c0-0.553-0.447-1-1-1s-1,0.447-1,1v11C39.824,21.973,40.271,22.42,40.824,22.42z"/> <path d="M40.824,27.42c0.553,0,1-0.447,1-1v-1c0-0.553-0.447-1-1-1s-1,0.447-1,1v1C39.824,26.973,40.271,27.42,40.824,27.42z"/> </g> </g>
</svg>