<!DOCTYPE svg PUBLIC "-//W3C//DTD SVG 1.1//EN" "http://www.w3.org/Graphics/SVG/1.1/DTD/svg11.dtd">

<!-- Uploaded to: SVG Repo, www.svgrepo.com, Transformed by: SVG Repo Mixer Tools -->
<svg fill="#ffffff" width="64px" height="64px" viewBox="0 0 24 24" xmlns="http://www.w3.org/2000/svg">

<g id="SVGRepo_bgCarrier" stroke-width="0"/>

<g id="SVGRepo_tracerCarrier" stroke-linecap="round" stroke-linejoin="round"/>

<g id="SVGRepo_iconCarrier">

<path d="M12,11A5,5,0,1,0,7,6,5.006,5.006,0,0,0,12,11Zm0-8A3,3,0,1,1,9,6,3,3,0,0,1,12,3ZM4,23H20a1,1,0,0,0,1-1A9,9,0,0,0,3,22,1,1,0,0,0,4,23Zm8-8a7.011,7.011,0,0,1,6.929,6H5.071A7.011,7.011,0,0,1,12,15Z"/>

</g>

</svg>